# xmcd CD database file
#
# Track frame offsets:
#	150
#	21504
#	35694
#	46879
#	66027
#	80655
#	96502
#	106919
#	118371
#	128261
#	140112
#	153932
#	173286
#	186744
#	199294
#	210055
#	221705
#	233677
#
# Disc length: 3249 seconds
#
# Revision: 0
# Processed by: cddbd v1.5.2PL0 Copyright (c) Steve Scherf et al.
# Submitted via: CDex 1.51
#
DISCID=030caf12
DTITLE=Louis Prima - Just A Gigolo
DYEAR=2006
DGENRE=Jazz
TTITLE0=Just A Gigolo - Ain't Got Nobody
TTITLE1=Buena Sera
TTITLE2=Oh ! Marie
TTITLE3=Basin Street Blues - When It's Sleepy Time Down South
TTITLE4=You Rascal You (I'll Be Glad When You're Dead)
TTITLE5=Jump, Jive An'Wail
TTITLE6=The Lip
TTITLE7=Banana Split For My Baby
TTITLE8=5 Months, 2 Weeks, 2 Days
TTITLE9=The Manuelo Tarentel
TTITLE10=Felicia No Capicia
TTITLE11=Angelina
TTITLE12=Sing, Sing, Sing
TTITLE13=Charleston
TTITLE14=Oooh-Dahdidi-Dah
TTITLE15=Shepherd Boy
TTITLE16=The Dummy Song
TTITLE17=It's Good As New
EXTD=YEAR: 2006
EXTT0=
EXTT1=
EXTT2=
EXTT3=
EXTT4=
EXTT5=
EXTT6=
EXTT7=
EXTT8=
EXTT9=
EXTT10=
EXTT11=
EXTT12=
EXTT13=
EXTT14=
EXTT15=
EXTT16=
EXTT17=
PLAYORDER=
